<svg xmlns="http://www.w3.org/2000/svg" viewBox="0 0 570.15 85.69"><defs><style>.cls-1{fill:#fff;}.cls-2{fill:#fff500;}</style></defs><g id="Livello_2" data-name="Livello 2"><g id="Modalità_Isolamento" data-name="Modalità Isolamento"><polygon class="cls-1" points="58.94 84.22 36.89 84.22 0 0.91 22.19 0.91 48.03 60.44 73.77 0.91 95.94 0.91 58.94 84.22"/><polygon class="cls-1" points="223.62 65.59 267.36 65.59 267.36 84.21 203.52 84.21 203.52 0.9 223.62 0.9 223.62 65.59"/><path class="cls-1" d="M358.9,41.46c0,27.56-17.4,44.23-40.68,44.23-23.65,0-39.7-16.67-39.7-44.23V.9h20.1V41.46c0,16,6.85,25.61,19.6,25.61,12.5,0,20.34-9.56,20.34-25.61V.9H358.9Z"/><polygon class="cls-1" points="481.91 84.22 461.7 84.22 461.7 41.69 441.74 84.22 419.3 84.22 399.32 41.69 399.32 84.22 379.23 84.22 379.23 0.91 401.55 0.91 430.58 62.04 459.49 0.91 481.91 0.91 481.91 84.22"/><polygon class="cls-1" points="570.15 0.9 570.15 19.53 526.4 19.53 526.4 33.86 562.91 33.86 562.91 51.26 526.4 51.26 526.4 65.59 570.15 65.59 570.15 84.21 506.31 84.21 506.31 0.9 570.15 0.9"/><path class="cls-2" d="M149.43,83a41.48,41.48,0,0,0,38.76-39,59.22,59.22,0,0,0-38.76,39"/><path class="cls-2" d="M105.59,44a41.47,41.47,0,0,0,38.8,39,58.71,58.71,0,0,0-38.8-39"/><path class="cls-2" d="M144.32,0a41.48,41.48,0,0,0-38.71,38.77A58.75,58.75,0,0,0,144.32,0"/><path class="cls-2" d="M188.18,38.78A41.49,41.49,0,0,0,149.44,0a58.62,58.62,0,0,0,38.74,38.78"/><path class="cls-2" d="M134.36,28.8a17.7,17.7,0,0,0,25.14-.1A18,18,0,0,0,159.42,54a17.73,17.73,0,0,0-25.14.1,17.94,17.94,0,0,0,.08-25.26"/></g></g></svg>